<?xml version="1.0" encoding="utf-8"?>
<!-- Generator: Adobe Illustrator 17.1.0, SVG Export Plug-In . SVG Version: 6.00 Build 0)  -->
<!DOCTYPE svg PUBLIC "-//W3C//DTD SVG 1.1//EN" "http://www.w3.org/Graphics/SVG/1.1/DTD/svg11.dtd">
<svg version="1.1" id="Layer_1" xmlns="http://www.w3.org/2000/svg" xmlns:xlink="http://www.w3.org/1999/xlink" x="0px" y="0px"
	 width="24px" height="24px" viewBox="0 0 24 24" enable-background="new 0 0 24 24" xml:space="preserve">
<g>
	<path fill="#FFFFFF" stroke="#000000" stroke-linecap="round" stroke-linejoin="round" stroke-miterlimit="10" d="M21.7,3.8
		l0.9-0.9c0.4-0.4,0.4-1.1,0-1.5c-0.4-0.4-1.1-0.4-1.5,0l-0.9,0.9c-0.7-0.2-1.6,0-2.1,0.5c-0.8,0.8-0.8,2.2,0,3.1
		c0.8,0.8,2.2,0.8,3.1,0C21.7,5.3,21.9,4.5,21.7,3.8z"/>
	<path fill="#FFFFFF" stroke="#000000" stroke-linecap="round" stroke-linejoin="round" stroke-miterlimit="10" d="M5.9,22.3
		l-4.3-4.3c-0.8-0.8-0.8-2.1,0-2.9L12.7,4.1c0.8-0.8,2.1-0.8,2.9,0l4.3,4.3c0.8,0.8,0.8,2.1,0,2.9L8.8,22.3
		C8,23.1,6.7,23.1,5.9,22.3z"/>
	<path fill="#FFFFFF" stroke="#000000" stroke-linecap="round" stroke-linejoin="round" stroke-miterlimit="10" d="M21.1,6.2
		l-3.3-3.3c-0.5-0.5-1.2-0.5-1.6,0l-0.9,0.9l4.9,4.9l0.9-0.9C21.6,7.4,21.6,6.7,21.1,6.2z"/>
	
		<line fill="none" stroke="#000000" stroke-linecap="round" stroke-linejoin="round" stroke-miterlimit="10" x1="10.7" y1="6.1" x2="13.4" y2="8.7"/>
	
		<line fill="none" stroke="#000000" stroke-linecap="round" stroke-linejoin="round" stroke-miterlimit="10" x1="7.3" y1="9.6" x2="9.9" y2="12.2"/>
	
		<line fill="none" stroke="#000000" stroke-linecap="round" stroke-linejoin="round" stroke-miterlimit="10" x1="3.8" y1="13.1" x2="6.4" y2="15.7"/>
</g>
</svg>
