<?xml version="1.0" encoding="utf-8"?>
<!-- Generator: Adobe Illustrator 17.1.0, SVG Export Plug-In . SVG Version: 6.00 Build 0)  -->
<!DOCTYPE svg PUBLIC "-//W3C//DTD SVG 1.1//EN" "http://www.w3.org/Graphics/SVG/1.1/DTD/svg11.dtd">
<svg version="1.1" id="Layer_1" xmlns="http://www.w3.org/2000/svg" xmlns:xlink="http://www.w3.org/1999/xlink" x="0px" y="0px"
	 width="23.7px" height="23.8px" viewBox="38.2 36.3 23.7 23.8" enable-background="new 38.2 36.3 23.7 23.8" xml:space="preserve">
<g>
	<path fill="#FFFFFF" stroke="#000000" stroke-linecap="round" stroke-linejoin="round" stroke-miterlimit="10" d="M39.3,59
		c-1.4-1.4-0.3-4.3,3.3-8.5c0,0,3.6-4.6,10.3-10.1c3.4-2.8,6.7-4.5,8.1-3.2s-0.4,4.7-3.2,8.1C52.3,52,47.6,55.6,47.6,55.6
		C43.6,59.3,40.6,60.4,39.3,59z"/>
	
		<line fill="none" stroke="#000000" stroke-linecap="round" stroke-linejoin="round" stroke-miterlimit="10" x1="48.8" y1="46.9" x2="51.3" y2="49.5"/>
	
		<line fill="none" stroke="#000000" stroke-linecap="round" stroke-linejoin="round" stroke-miterlimit="10" x1="45.7" y1="50.2" x2="48.3" y2="52.7"/>
	
		<line fill="none" stroke="#000000" stroke-linecap="round" stroke-linejoin="round" stroke-miterlimit="10" x1="42.6" y1="53.6" x2="44.8" y2="55.7"/>
	
		<line fill="none" stroke="#000000" stroke-linecap="round" stroke-linejoin="round" stroke-miterlimit="10" x1="55.5" y1="40.7" x2="57.5" y2="42.8"/>
	
		<line fill="none" stroke="#000000" stroke-linecap="round" stroke-linejoin="round" stroke-miterlimit="10" x1="52" y1="43.7" x2="54.5" y2="46.3"/>
</g>
</svg>
