<?xml version="1.0" encoding="utf-8"?>
<!-- Generator: Adobe Illustrator 17.1.0, SVG Export Plug-In . SVG Version: 6.00 Build 0)  -->
<!DOCTYPE svg PUBLIC "-//W3C//DTD SVG 1.1//EN" "http://www.w3.org/Graphics/SVG/1.1/DTD/svg11.dtd">
<svg version="1.1" id="Layer_1" xmlns="http://www.w3.org/2000/svg" xmlns:xlink="http://www.w3.org/1999/xlink" x="0px" y="0px"
	 width="25.5px" height="26px" viewBox="53.4 53.7 25.5 26" enable-background="new 53.4 53.7 25.5 26" xml:space="preserve">
<g>
	<path fill="#FFFFFF" stroke="#000000" stroke-linecap="round" stroke-linejoin="round" stroke-miterlimit="10" d="M57,56.9h2.3h1.8
		l1.8,2.7c0.9,0.9,0.9,2.3,0.9,3.6v13.6c0,0.9-0.9,1.8-1.8,1.8h-6.4c-0.9,0-1.8-0.9-1.8-1.8V63.3c0-1.4,0.5-2.7,0.9-3.6L57,56.9"/>
	<path fill="#FFFFFF" stroke="#000000" stroke-linecap="round" stroke-linejoin="round" stroke-miterlimit="10" d="M61.1,54.2h-4.5
		c-0.9,0-1.4,0.5-1.4,1.4l0,0c0,0.9,0.5,1.4,1.4,1.4h4.5c0.9,0,1.4-0.5,1.4-1.4l0,0C62.5,54.7,62,54.2,61.1,54.2z"/>
	
		<rect x="61.1" y="70.1" fill="#FFFFFF" stroke="#000000" stroke-linecap="round" stroke-linejoin="round" stroke-miterlimit="10" width="17.3" height="9.1"/>
	<path fill="none" stroke="#000000" stroke-linecap="round" stroke-linejoin="round" stroke-miterlimit="10" d="M72,70.1
		c0,1.4-1.4,2.7-2.7,2.7c-1.4,0-2.7-1.4-2.7-2.7"/>
	
		<circle fill="#FFFFFF" stroke="#000000" stroke-linecap="round" stroke-linejoin="round" stroke-miterlimit="10" cx="74.3" cy="75.1" r="1.4"/>
	
		<circle fill="#FFFFFF" stroke="#000000" stroke-linecap="round" stroke-linejoin="round" stroke-miterlimit="10" cx="65.2" cy="75.1" r="0.9"/>
	<path fill="none" stroke="#000000" stroke-linecap="round" stroke-linejoin="round" stroke-miterlimit="10" d="M61.1,70.1l16.4-2.7
		c0,0,0.9,0.9,0.9,2.7"/>
</g>
</svg>
