<?xml version="1.0" encoding="utf-8"?>
<!-- Generator: Adobe Illustrator 20.0.0, SVG Export Plug-In . SVG Version: 6.00 Build 0)  -->
<!DOCTYPE svg PUBLIC "-//W3C//DTD SVG 1.1//EN" "http://www.w3.org/Graphics/SVG/1.1/DTD/svg11.dtd">
<svg version="1.1" id="Layer_1" xmlns="http://www.w3.org/2000/svg" xmlns:xlink="http://www.w3.org/1999/xlink" x="0px" y="0px"
	 viewBox="0 0 24 24" style="enable-background:new 0 0 24 24;" xml:space="preserve">
<style type="text/css">
	.st0{fill:#010101;}
	.st1{fill:#FFFFFF;}
	.st2{display:none;}
	.st3{display:inline;}
	.st4{display:none;fill:#010101;}
</style>
<g>
	<g>
		<g>
			<path class="st0" d="M23.3,22H13c-0.3,0-0.5-0.2-0.5-0.5V4.7c0-0.1,0-0.2,0.1-0.3l2-2c0.1-0.1,0.2-0.1,0.3-0.1h6.3
				c0.1,0,0.2,0,0.3,0.1l2,2c0.1,0.1,0.1,0.2,0.1,0.3v16.8C23.7,21.8,23.5,22,23.3,22z M13.5,21.1h9.3V4.9l-1.7-1.7h-5.9l-1.7,1.7
				V21.1z"/>
		</g>
		<g>
			<path class="st1" d="M0.9,11.9v3c0,2.9,1.5,5.3,3.9,6.7h7.8c2.3-1.3,3.9-3.8,3.9-6.7v-3H0.9z"/>
			<path class="st0" d="M12.5,22H4.7c-0.1,0-0.2,0-0.2-0.1c-2.5-1.5-4.1-4.2-4.1-7.1v-3c0-0.3,0.2-0.5,0.5-0.5h15.5
				c0.3,0,0.5,0.2,0.5,0.5v3c0,2.9-1.6,5.6-4.1,7.1C12.7,22,12.6,22,12.5,22z M4.9,21.1h7.5c2.2-1.3,3.5-3.7,3.5-6.2v-2.5H1.3v2.5
				C1.3,17.4,2.7,19.8,4.9,21.1z"/>
		</g>
		<g>
			<path class="st0" d="M13.5,24H3.7c-0.4,0-0.9-0.1-1.3-0.2c-1-0.3-1.8-1.1-2.1-2.1c0-0.1,0-0.3,0.1-0.4c0.1-0.1,0.2-0.2,0.4-0.2
				h15.8c0.1,0,0.3,0.1,0.4,0.2c0.1,0.1,0.1,0.3,0.1,0.4c-0.3,1-1.1,1.8-2.1,2.1C14.4,23.9,13.9,24,13.5,24z M1.4,22
				c0.3,0.4,0.7,0.8,1.2,0.9C3,23,3.4,23.1,3.7,23.1h9.7c0.4,0,0.7,0,1.1-0.1c0.5-0.1,0.9-0.5,1.2-0.9H1.4z"/>
		</g>
		<g>
			<path class="st0" d="M17.5,19.3c-0.3,0-0.6-0.1-0.8-0.2c-0.8-0.4-1-1.5-0.6-2.2c0.3-0.6,0.9-0.9,1.5-1.1c0.4-0.1,0.7-0.4,1.1-0.6
				l0.1-0.1c0.4-0.3,0.6-0.7,0.6-1.1c0-0.7-0.6-1.3-1.3-1.3c-0.7,0-1.3,0.6-1.3,1.3c0,0.3-0.2,0.5-0.5,0.5c-0.3,0-0.5-0.2-0.5-0.5
				c0-1.3,1-2.3,2.3-2.3s2.3,1,2.3,2.3c0,0.8-0.4,1.5-1,1.9l-0.1,0.1c-0.4,0.3-0.8,0.6-1.3,0.7c-0.4,0.2-0.8,0.3-1,0.7
				c-0.2,0.3,0,0.8,0.3,1c0.3,0.2,0.8,0.1,1-0.3c0.1-0.2,0.4-0.3,0.6-0.2c0.2,0.1,0.3,0.4,0.2,0.6C18.7,19,18.1,19.3,17.5,19.3z"/>
		</g>
		<g>
			<path class="st0" d="M21.3,24h-8.7c-0.3,0-0.5-0.2-0.5-0.5c0-0.3,0.2-0.5,0.5-0.5h8.5l1.8-1.8c0.2-0.2,0.5-0.2,0.7,0
				s0.2,0.5,0,0.7l-2,2C21.5,24,21.4,24,21.3,24z"/>
		</g>
		<g>
			<path class="st0" d="M23.3,5.2H13c-0.3,0-0.5-0.2-0.5-0.5c0-0.3,0.2-0.5,0.5-0.5h10.3c0.3,0,0.5,0.2,0.5,0.5
				C23.7,5,23.5,5.2,23.3,5.2z"/>
		</g>
	</g>
	<g>
		<g>
			<path class="st1" d="M4.4,0.5C5.1,1.9,4.9,3.8,3.7,5S2.2,8,2.9,9.5"/>
			<path class="st0" d="M2.9,10c-0.2,0-0.3-0.1-0.4-0.3C1.7,8,2,6,3.3,4.7c1-1,1.3-2.7,0.7-4C3.9,0.4,4,0.2,4.2,0
				c0.2-0.1,0.5,0,0.6,0.2C5.7,1.9,5.3,4,4,5.3c-1,1-1.3,2.7-0.7,4c0.1,0.2,0,0.5-0.2,0.6C3,9.9,3,10,2.9,10z"/>
		</g>
	</g>
	<g>
		<g>
			<path class="st1" d="M7.7,0.5C8.4,1.9,8.2,3.8,6.9,5S5.5,8,6.2,9.5"/>
			<path class="st0" d="M6.2,10C6,10,5.9,9.9,5.8,9.7C5,8,5.3,6,6.6,4.7c1-1,1.3-2.7,0.7-4C7.2,0.4,7.3,0.2,7.5,0
				C7.7-0.1,8,0,8.1,0.3C8.9,1.9,8.6,4,7.3,5.3c-1,1-1.3,2.7-0.7,4c0.1,0.2,0,0.5-0.2,0.6C6.3,9.9,6.3,10,6.2,10z"/>
		</g>
	</g>
	<g>
		<g>
			<path class="st1" d="M11,0.5c0.7,1.5,0.5,3.3-0.7,4.5S8.8,8,9.5,9.5"/>
			<path class="st0" d="M9.5,10c-0.2,0-0.3-0.1-0.4-0.3C8.2,8,8.6,6,9.9,4.7c1-1,1.3-2.7,0.7-4c-0.1-0.2,0-0.5,0.2-0.6
				c0.2-0.1,0.5,0,0.6,0.2c0.8,1.7,0.5,3.7-0.8,5.1c-1,1-1.3,2.7-0.7,4c0.1,0.2,0,0.5-0.2,0.6C9.6,9.9,9.6,10,9.5,10z"/>
		</g>
	</g>
</g>
<g class="st2">
	<g class="st3">
		<g>
			<path class="st0" d="M14.9,2.5h-3.1c-0.5,0-0.9-0.4-0.9-0.9V0.9C11,0.4,11.4,0,11.8,0h3.1c0.5,0,0.9,0.4,0.9,0.9v0.8
				C15.8,2.1,15.4,2.5,14.9,2.5z M11.9,1.6h2.9V0.9h-2.9V1.6z"/>
		</g>
		<g>
			<path class="st0" d="M15.6,24h-4.5c-1,0-1.8-0.8-1.8-1.8v-8.7c0,0,0,0,0,0c0.1-1.6,0.5-3.2,0.9-4.2l0.1-0.2
				c0.3-0.9,0.6-1.6,0.7-2.6C11.2,4.3,11.4,2,11.4,2c0-0.3,0.2-0.5,0.5-0.4c0.3,0,0.5,0.2,0.4,0.5c0,0-0.1,2.3-0.4,4.6
				c-0.1,1.1-0.4,1.8-0.7,2.8L11,9.6c-0.3,1-0.8,2.4-0.8,3.9v8.7c0,0.5,0.4,0.9,0.9,0.9h4.5c0.5,0,0.9-0.4,0.9-0.9v-8.7
				c-0.1-1.5-0.5-2.9-0.8-3.9c-0.4-1.1-0.7-1.9-0.8-3.1c-0.3-2.2-0.4-4.4-0.4-4.4c0-0.3,0.2-0.5,0.4-0.5c0.3,0,0.5,0.2,0.5,0.4
				c0,0,0.1,2.2,0.4,4.4c0.1,1.1,0.4,1.8,0.8,2.9c0.4,1,0.8,2.6,0.9,4.2c0,0,0,0,0,0v8.7C17.4,23.2,16.6,24,15.6,24z"/>
		</g>
		<g>
			<path class="st0" d="M14.9,20.9h-3.2c-0.2,0-0.4-0.2-0.5-0.4l-0.7-3.9c0-0.2,0-0.3,0.1-0.4c0.7-0.7,1.6-1.1,2.6-1.1
				c1,0,1.9,0.4,2.6,1.1c0.1,0.1,0.2,0.3,0.1,0.4l-0.7,3.9C15.3,20.7,15.1,20.9,14.9,20.9z M12.1,20h2.4l0.6-3.3
				c-0.5-0.4-1.1-0.6-1.8-0.6c-0.7,0-1.3,0.2-1.8,0.6L12.1,20z"/>
		</g>
		<g>
			<path class="st0" d="M15.1,6.1h-3.6c-0.3,0-0.5-0.2-0.5-0.5s0.2-0.5,0.5-0.5h3.6c0.3,0,0.5,0.2,0.5,0.5S15.4,6.1,15.1,6.1z"/>
		</g>
	</g>
	<g class="st3">
		<g>
			<path class="st0" d="M22.7,24h-5.8c-0.3,0-0.5-0.2-0.5-0.5V7.1c0-0.3,0.2-0.5,0.5-0.5h5.8c0.3,0,0.5,0.2,0.5,0.5v16.4
				C23.2,23.8,23,24,22.7,24z M17.4,23.1h4.9V7.6h-4.9V23.1z"/>
		</g>
		<g>
			<g>
				<path class="st0" d="M21.8,7.6h-4.2c-0.3,0-0.5-0.2-0.5-0.5V5.2c0-0.3,0.2-0.5,0.5-0.5h4.2c0.3,0,0.5,0.2,0.5,0.5v1.9
					C22.3,7.4,22.1,7.6,21.8,7.6z M18.2,6.6h3.2v-1h-3.2V6.6z"/>
			</g>
			<g>
				<path class="st0" d="M20.8,5.7c-0.2,0-0.4-0.2-0.5-0.4l-0.5-2.4h-0.1c0,0,0,0,0,0h-0.1l-0.5,2.4c-0.1,0.3-0.3,0.4-0.6,0.4
					c-0.3-0.1-0.4-0.3-0.4-0.6l0.6-2.8c0-0.2,0.2-0.4,0.5-0.4h0.5c0,0,0,0,0,0h0.4c0.2,0,0.4,0.2,0.5,0.4l0.6,2.8
					C21.4,5.3,21.2,5.6,20.8,5.7C20.9,5.7,20.9,5.7,20.8,5.7z"/>
			</g>
		</g>
	</g>
	<g class="st3">
		<g>
			<path class="st0" d="M7.8,7.2H3.3C3,7.2,2.8,7,2.8,6.7V3.6c0-0.3,0.2-0.5,0.5-0.5h4.5c0.3,0,0.5,0.2,0.5,0.5v3.2
				C8.2,7,8,7.2,7.8,7.2z M3.7,6.2h3.5V4H3.7V6.2z"/>
		</g>
		<g>
			<path class="st0" d="M8.4,23.9H2.6c-1,0-1.8-0.8-1.8-1.8v-5.9c0-0.9,0.4-1.7,1-2.2c1.7-1.4,1.5-3,1.5-3.1c0,0,0,0,0-0.1V6.7
				c0-0.3,0.2-0.5,0.5-0.5s0.5,0.2,0.5,0.5v4.1c0,0.3,0.1,2.2-1.8,3.9c-0.4,0.4-0.7,0.9-0.7,1.5v5.9c0,0.5,0.4,0.8,0.8,0.8h5.8
				c0.5,0,0.8-0.4,0.8-0.8v-5.9c0-0.6-0.2-1.1-0.7-1.5c-2-1.7-1.9-3.6-1.8-3.9V6.7c0-0.3,0.2-0.5,0.5-0.5s0.5,0.2,0.5,0.5v4.2
				c0,0,0,0,0,0.1c0,0.1-0.2,1.6,1.5,3.1c0.6,0.5,1,1.3,1,2.2v5.9C10.2,23.1,9.4,23.9,8.4,23.9z"/>
		</g>
	</g>
	<g class="st3">
		<path class="st0" d="M9.7,17.3H1.3c-0.3,0-0.5-0.2-0.5-0.5s0.2-0.5,0.5-0.5h8.4c0.3,0,0.5,0.2,0.5,0.5S10,17.3,9.7,17.3z"/>
	</g>
	<g class="st3">
		<path class="st0" d="M9.7,21.5H1.3c-0.3,0-0.5-0.2-0.5-0.5s0.2-0.5,0.5-0.5h8.4c0.3,0,0.5,0.2,0.5,0.5S10,21.5,9.7,21.5z"/>
	</g>
</g>
<g class="st2">
	<g class="st3">
		<path class="st0" d="M5.5,24c-0.1,0-0.2,0-0.3-0.1l-5-5C0,18.7,0,18.5,0,18.4c0.1-0.2,0.3-0.3,0.4-0.3l4.9,0.1
			c0.3,0,0.5,0.2,0.5,0.5l0.1,4.9c0,0.2-0.1,0.4-0.3,0.4C5.6,24,5.5,24,5.5,24z M1.6,19L5,22.4l0-3.3L1.6,19z"/>
	</g>
	<g class="st3">
		<path class="st0" d="M23.5,5.9C23.5,5.9,23.5,5.9,23.5,5.9l-4.9-0.1c-0.3,0-0.5-0.2-0.5-0.5l-0.1-4.9c0-0.2,0.1-0.4,0.3-0.4
			c0.2-0.1,0.4,0,0.5,0.1l5,5C24,5.3,24,5.5,24,5.6C23.9,5.8,23.7,5.9,23.5,5.9z M19.1,4.9l3.3,0L19,1.6L19.1,4.9z"/>
	</g>
	<g class="st3">
		<path class="st0" d="M9,21.4c-0.9,0-1.8-0.4-2.5-1l-2.7-2.7c-1.1-1.1-1.3-2.7-0.6-4.1c2.4-4.4,6-8,10.4-10.4
			c1.4-0.7,3-0.5,4.1,0.6l2.6,2.6c1.1,1.1,1.3,2.7,0.6,4.1C18.5,15,15,18.6,10.7,21l0,0C10.1,21.3,9.6,21.4,9,21.4z M15.2,3.7
			c-0.4,0-0.8,0.1-1.2,0.3C9.8,6.2,6.2,9.8,4,14c-0.5,1-0.3,2.2,0.5,3l2.7,2.7c0.8,0.8,2,1,3,0.4l0,0c4.1-2.2,7.5-5.8,9.8-10.2
			c0.5-1,0.3-2.2-0.5-3L17,4.4C16.5,4,15.8,3.7,15.2,3.7z"/>
	</g>
</g>
<path class="st4" d="M23.9,8.5c-0.2-0.2-0.5-0.2-0.7,0l-1.6,1.6c-0.6-0.4-1.2-0.7-1.9-0.9l2.1-2.1c0.2-0.2,0.2-0.5,0-0.7
	c-0.2-0.2-0.5-0.2-0.7,0l-2.5,2.5c-0.7-0.1-1.4-0.1-2.1,0C16.3,8.9,16,9,15.8,9l4-4c0.2-0.2,0.2-0.5,0-0.7c-0.2-0.2-0.5-0.2-0.7,0
	l-4.1,4.1c0.1-0.4,0.1-0.7,0.2-1c0.1-0.7,0.1-1.4,0-2.1l2.5-2.5c0.2-0.2,0.2-0.5,0-0.7c-0.2-0.2-0.5-0.2-0.7,0l-2.1,2.1
	c-0.2-0.7-0.5-1.3-0.9-1.9l1.6-1.6c0.2-0.2,0.2-0.5,0-0.7C15.3,0,15,0,14.8,0.1L13,2c-1.5,1.1-2.5,2.8-2.8,4.6C10,6.4,9.9,6.2,9.7,6
	C9.6,5.8,9.3,5.7,9.1,5.9C7.6,7,6.5,8.7,6.2,10.5c-0.1-0.2-0.3-0.4-0.4-0.6C5.7,9.8,5.5,9.7,5.4,9.7c-0.6,0-2,2.3-2,2.3
	c-0.6,1-0.8,2.1-0.7,3.3C2.8,16,3,16.5,3.1,17.1c0.1,0.3,0.2,0.6,0.3,1c0.3,1.2,0.2,1.6,0.2,1.8c0,0-0.1,0.1-0.1,0.1l-3.3,3.3
	c-0.2,0.2-0.2,0.5,0,0.7C0.2,24,0.4,24,0.5,24s0.2,0,0.3-0.1l3.3-3.3c0,0,0.1-0.1,0.1-0.1c0.1,0,0.5-0.1,1.8,0.1
	c0.3,0.1,0.6,0.2,1,0.3C7.5,21,8,21.2,8.6,21.3c0.2,0,0.5,0,0.7,0c0.9,0,1.8-0.2,2.6-0.7c0,0,2.3-1.4,2.3-2c0-0.2-0.1-0.3-0.2-0.4
	c-0.2-0.1-0.4-0.3-0.6-0.4c1.8-0.3,3.5-1.4,4.6-2.9c0.2-0.2,0.1-0.5-0.1-0.7c-0.2-0.1-0.4-0.3-0.6-0.4c1.8-0.3,3.5-1.4,4.6-2.8
	l1.8-1.8C24,9,24,8.7,23.9,8.5z M11,7C11.3,5.4,12,4,13.2,3c0.8,1.3,1.2,2.9,1,4.4c-0.1,0.8-0.4,1.9-1.2,3L11,12.3
	c0.1-0.3,0.1-0.6,0.2-0.8c0.1-0.9,0.1-1.9-0.1-2.7C10.9,8.1,10.9,7.5,11,7z M7.1,10.9C7.3,9.4,8.1,8,9.3,7c0.4,0.6,0.7,1.3,0.8,2
	c0,0.1,0,0.3,0.1,0.4c0,0,0,0.1,0,0.1c0.1,0.6,0.1,1.2,0,1.9c-0.1,0.8-0.4,1.9-1.2,3l-2,2c0.1-0.3,0.1-0.6,0.2-0.9
	c0.1-0.9,0.1-1.9-0.1-2.7C7,12.1,7,11.5,7.1,10.9z M4.2,12.6c0.1-0.2,0.7-1.1,1.1-1.6c0.4,0.6,0.7,1.3,0.8,1.9c0,0.1,0,0.3,0.1,0.4
	c0,0,0,0.1,0,0.1c0.1,0.6,0.1,1.2,0,1.9c-0.1,1-0.7,2.2-1.4,3.1c-0.1,0.1-0.3,0.2-0.4,0.3c0-0.3-0.1-0.6-0.2-1
	c-0.1-0.3-0.2-0.7-0.3-1c-0.2-0.5-0.3-1-0.4-1.5C3.6,14.3,3.7,13.3,4.2,12.6z M11.4,19.8c-0.8,0.5-1.7,0.7-2.7,0.5
	c-0.5-0.1-1-0.2-1.5-0.4c-0.3-0.1-0.7-0.2-1-0.3c-0.4-0.1-0.7-0.1-1-0.2c0.1-0.1,0.2-0.3,0.3-0.4c1-0.7,2.1-1.3,3.1-1.4
	c0.6-0.1,1.2-0.1,1.9,0c0,0,0.1,0,0.1,0c0.2,0,0.3,0.1,0.5,0.1c0.7,0.2,1.3,0.4,1.9,0.8C12.5,19.1,11.6,19.7,11.4,19.8z M13.1,16.9
	c-0.6,0.1-1.2,0.1-1.8,0c-0.9-0.2-1.8-0.3-2.7-0.1c-0.3,0-0.6,0.1-0.9,0.2l2-2c1.1-0.9,2.2-1.1,3-1.2c0.6-0.1,1.2-0.1,1.9,0
	c0,0,0.1,0,0.1,0c0.2,0,0.3,0.1,0.5,0.1c0.7,0.2,1.4,0.5,2,0.8C16,15.9,14.6,16.7,13.1,16.9z M17,13c-0.6,0.1-1.2,0.1-1.8,0
	c-0.9-0.2-1.8-0.3-2.7-0.1c-0.2,0-0.5,0.1-0.8,0.2l1.9-1.9c1.1-0.9,2.2-1.1,3-1.2c1.5-0.2,3.1,0.1,4.4,1C20,12,18.6,12.7,17,13z"/>
</svg>
