<?xml version="1.0" encoding="utf-8"?>
<!-- Generator: Adobe Illustrator 17.1.0, SVG Export Plug-In . SVG Version: 6.00 Build 0)  -->
<!DOCTYPE svg PUBLIC "-//W3C//DTD SVG 1.1//EN" "http://www.w3.org/Graphics/SVG/1.1/DTD/svg11.dtd">
<svg version="1.1" id="Layer_1" xmlns="http://www.w3.org/2000/svg" xmlns:xlink="http://www.w3.org/1999/xlink" x="0px" y="0px"
	 width="24px" height="24px" viewBox="0 0 24 24" enable-background="new 0 0 24 24" xml:space="preserve">
<path fill="#020202" d="M23,9.3h-1.8c0.2-1-0.1-2.1-0.9-2.8c-1.6-1.5-3.5-2.8-5.5-3.7l0.4-0.8c0.1-0.2,0-0.5-0.2-0.6
	c-0.2-0.1-0.5,0-0.6,0.2L14,2.4c-2-0.9-4.2-1.5-6.4-1.7l0,0C6.3,0.5,5.1,1.2,4.5,2.4c0,0.1,0,0.2,0,0.3c0,0.1,0.1,0.2,0.2,0.3
	l13.8,6.3H3.4H1c-0.3,0-0.5,0.2-0.5,0.5V12c0,0.3,0.2,0.5,0.5,0.5h1.9v7.2c0,2.1,1.7,3.7,3.7,3.7h10.6c2.1,0,3.7-1.7,3.7-3.7v-7.3
	H23c0.3,0,0.5-0.2,0.5-0.5V9.7C23.5,9.5,23.3,9.3,23,9.3z M7.5,1.5L7.5,1.5C12,2,16.4,4,19.7,7.1c0.5,0.5,0.8,1.3,0.6,2L5.6,2.4
	C6.1,1.8,6.8,1.4,7.5,1.5z M1.4,11.5v-1.3h1.5v1.3H1.4z M20.2,19.6c0,1.6-1.3,2.8-2.8,2.8H6.7c-1.6,0-2.8-1.3-2.8-2.8v-7.7v-1.7
	h16.3v1.7L20.2,19.6L20.2,19.6z M22.6,11.5h-1.5v-1.3h1.5V11.5z"/>
</svg>
