<?xml version="1.0" encoding="utf-8"?>
<!-- Generator: Adobe Illustrator 17.1.0, SVG Export Plug-In . SVG Version: 6.00 Build 0)  -->
<!DOCTYPE svg PUBLIC "-//W3C//DTD SVG 1.1//EN" "http://www.w3.org/Graphics/SVG/1.1/DTD/svg11.dtd">
<svg version="1.1" id="Layer_1" xmlns="http://www.w3.org/2000/svg" xmlns:xlink="http://www.w3.org/1999/xlink" x="0px" y="0px"
	 width="22.2px" height="23.7px" viewBox="73.4 71.8 22.2 23.7" enable-background="new 73.4 71.8 22.2 23.7" xml:space="preserve">
<g>
	<path fill="#FFFFFF" stroke="#000000" stroke-linecap="round" stroke-linejoin="round" stroke-miterlimit="10" d="M77.9,77.6h-1.7
		c-1.3,0-2.3,1-2.3,2.3v5.7c0,1.4,0.5,2.6,1.5,3.5l2.5,2.5"/>
	
		<rect x="77.9" y="77.6" fill="#FFFFFF" stroke="#000000" stroke-linecap="round" stroke-linejoin="round" stroke-miterlimit="10" width="12.8" height="17.4"/>
	<path fill="#FFFFFF" stroke="#000000" stroke-linecap="round" stroke-linejoin="round" stroke-miterlimit="10" d="M87.9,73.7
		c-0.4,0-0.7,0.1-1.1,0.2c-0.5-1-1.5-1.6-2.5-1.6s-2.1,0.6-2.5,1.6c-0.4-0.1-0.6-0.2-1.1-0.2c-1.5,0-2.8,1.2-2.8,2.7v1.2h12.8v-1.2
		l0,0C90.6,74.9,89.5,73.7,87.9,73.7z"/>
	<path fill="#FFFFFF" stroke="#000000" stroke-linecap="round" stroke-linejoin="round" stroke-miterlimit="10" d="M93.3,77.6h-2.6
		h-2.5c-2,3.5-1.7,6.4-1.7,6.4c0,1.9,1.3,3.5,3,4.2l0,0c0.8,0.4,1.4,1.2,1.4,2.1c0-0.9,0.5-1.7,1.4-2.1l0,0c1.7-0.5,3-2.2,3-4.2
		C95.1,84,95.3,81,93.3,77.6z"/>
	
		<line fill="none" stroke="#000000" stroke-linecap="round" stroke-linejoin="round" stroke-miterlimit="10" x1="86.7" y1="80.9" x2="94.6" y2="80.9"/>
	<path fill="#FFFFFF" stroke="#000000" stroke-linecap="round" stroke-linejoin="round" stroke-miterlimit="10" d="M94.6,95
		c-2.2-2.2-5.7-2.2-7.8,0H94.6z"/>
	
		<line fill="none" stroke="#000000" stroke-linecap="round" stroke-linejoin="round" stroke-miterlimit="10" x1="81" y1="80.9" x2="81" y2="91.7"/>
	
		<line fill="none" stroke="#000000" stroke-linecap="round" stroke-linejoin="round" stroke-miterlimit="10" x1="84" y1="80.9" x2="84" y2="91.7"/>
	
		<line fill="none" stroke="#000000" stroke-linecap="round" stroke-linejoin="round" stroke-miterlimit="10" x1="87" y1="89.3" x2="87" y2="91.7"/>
</g>
</svg>
