<?xml version="1.0" encoding="utf-8"?>
<!-- Generator: Adobe Illustrator 17.1.0, SVG Export Plug-In . SVG Version: 6.00 Build 0)  -->
<!DOCTYPE svg PUBLIC "-//W3C//DTD SVG 1.1//EN" "http://www.w3.org/Graphics/SVG/1.1/DTD/svg11.dtd">
<svg version="1.1" id="Layer_1" xmlns="http://www.w3.org/2000/svg" xmlns:xlink="http://www.w3.org/1999/xlink" x="0px" y="0px"
	 width="24px" height="24px" viewBox="0 0 24 24" enable-background="new 0 0 24 24" xml:space="preserve">
<g>
	<path fill="#FFFFFF" d="M7.5,3.4C7.4,3.3,7.3,3.2,7.2,3.1c-1.4-1.6-3.4-1.6-4.8,0C2,3.7,1.7,4.3,1.4,5C0.9,6.3,0.7,7.6,0.6,9
		c-0.1,1.8,0,3.6,0.4,5.3c0.3,1.1,0.8,2.2,1.6,3c0,0,0.1,0.2,0,0.2c-0.1,0.4-0.1,0.8-0.2,1.2c-0.1,0.7-0.2,1.4-0.1,2
		c0.4,1.7,1.9,2.9,3.6,2.9c3.9,0,7.8,0,11.6,0c0.3,0,0.6,0,0.9,0c2-0.2,3.5-2.2,3.1-4.2c-0.1-0.6-0.2-1.3-0.3-1.9
		c0-0.1,0-0.2,0.1-0.2c0.8-0.8,1.2-1.7,1.5-2.7c0.8-2.8,0.8-5.6,0.1-8.5c-0.3-1.1-0.7-2.2-1.5-3c-1.3-1.5-3.2-1.5-4.6-0.1
		c-0.1,0.1-0.3,0.3-0.4,0.4c-0.3-0.2-0.7-0.3-1-0.4c-0.1-0.1-0.2-0.1-0.2-0.3c0-1.2-0.9-2.2-2-2.3c-0.7-0.1-1.4,0-2-0.1
		c-1.5,0-2.5,1-2.6,2.5c0,0.1-0.1,0.1-0.1,0.2C8.2,3.1,7.8,3.2,7.5,3.4z"/>
	<path d="M7.5,3.4c0.4-0.2,0.7-0.3,1.1-0.5c0.1,0,0.1-0.1,0.1-0.2c0.1-1.5,1.1-2.5,2.6-2.5c0.7,0,1.4,0,2,0.1c1.1,0.1,2,1.2,2,2.3
		c0,0.2,0.1,0.2,0.2,0.3c0.3,0.1,0.7,0.3,1,0.4c0.1-0.1,0.3-0.3,0.4-0.4c1.4-1.4,3.3-1.3,4.6,0.1C22.3,4,22.7,5,23,6.1
		c0.7,2.8,0.7,5.7-0.1,8.5c-0.3,1-0.7,2-1.5,2.7c-0.1,0.1-0.1,0.2-0.1,0.2c0.1,0.6,0.2,1.3,0.3,1.9c0.3,2-1.2,4-3.1,4.2
		c-0.3,0-0.6,0-0.9,0c-3.9,0-7.8,0-11.6,0c-1.8,0-3.3-1.2-3.6-2.9c-0.2-0.7,0-1.4,0.1-2c0.1-0.4,0.1-0.8,0.2-1.2c0-0.1,0-0.2,0-0.2
		c-0.9-0.8-1.3-1.9-1.6-3C0.5,12.6,0.4,10.8,0.6,9C0.7,7.6,0.9,6.3,1.4,5C1.7,4.3,2,3.7,2.5,3.2c1.4-1.6,3.4-1.6,4.8,0
		C7.3,3.2,7.4,3.3,7.5,3.4z M12,22c0.6,0,1.2,0,1.9,0c1.4,0,2.8,0,4.3,0c1.1,0,2-1.1,1.8-2.2c-0.2-1.2-0.4-2.5-0.6-3.7
		c-0.5-2.6-0.9-5.2-1.4-7.8c-0.4-2.3-2.3-3.9-4.6-3.9c-0.9,0-1.8,0-2.7,0c-2.1,0-4,1.5-4.4,3.5c-0.3,1.3-0.5,2.6-0.7,3.8
		c-0.4,2.4-0.8,4.7-1.2,7.1c-0.1,0.5-0.2,0.9-0.2,1.4C4.1,21.2,4.9,22,6,22C8,22,10,22,12,22z M20.9,15C20.9,15,20.9,15,20.9,15
		c0.2-0.3,0.3-0.5,0.3-0.8c0.7-2.5,0.7-5,0.1-7.6c-0.2-0.8-0.5-1.7-1.1-2.3c-0.7-0.8-1.5-0.8-2.2,0c-0.1,0.1-0.1,0.2,0,0.3
		c0.8,0.9,1.3,1.9,1.5,3.1c0.4,2.4,0.8,4.7,1.3,7.1C20.9,14.9,20.9,14.9,20.9,15z M6.1,4.4C5.9,4.3,5.7,4.1,5.5,3.9
		C5.2,3.7,4.7,3.6,4.4,3.9C4.1,4,3.9,4.2,3.7,4.4C3.3,4.9,3.1,5.4,2.9,6C2.5,7.2,2.3,8.4,2.3,9.7c-0.1,1.4,0,2.9,0.4,4.2
		C2.8,14.3,2.9,14.6,3,15c0.1,0,0.1-0.1,0.1-0.1c0.4-2.1,0.7-4.1,1.1-6.2C4.4,7.8,4.5,6.9,5,6.1C5.3,5.5,5.7,5,6.1,4.4z M9.8,2.6
		c1.5,0,3,0,4.5,0c0-0.5-0.4-1.2-1.2-1.2c-0.7,0-1.4,0-2.1,0C10.3,1.4,9.8,2,9.8,2.6z"/>
	<path fill="#FFFFFF" d="M12,22c-2,0-4,0-6,0c-1.1,0-1.9-0.7-2-1.8c0-0.5,0.1-0.9,0.2-1.4c0.4-2.4,0.8-4.7,1.2-7.1
		c0.2-1.3,0.4-2.6,0.7-3.8c0.5-2,2.3-3.5,4.4-3.5c0.9,0,1.8,0,2.7,0c2.3,0,4.2,1.7,4.6,3.9c0.4,2.6,0.9,5.2,1.4,7.8
		c0.2,1.2,0.4,2.5,0.6,3.7c0.2,1.1-0.7,2.1-1.8,2.2c-1.4,0-2.8,0-4.3,0C13.2,22,12.6,22,12,22z M12,13.9c-1.3,0-2.5,0-3.8,0
		c-1.1,0-1.9,0.9-1.9,2c0,1.1,0,2.2,0,3.4c0,1.1,0.9,2,2,2c2.5,0,5,0,7.4,0c1.1,0,2-0.9,2-2c0-1.1,0-2.2,0-3.3
		c0-1.2-0.9-2.1-2.1-2.1C14.4,13.9,13.2,13.9,12,13.9z M12,5.2C12,5.2,12,5.2,12,5.2c-0.4,0-0.9,0-1.3,0c-1.8,0-3.3,1.3-3.7,3
		c-0.2,1-0.4,2-0.5,3c-0.1,0.4,0.1,0.6,0.4,0.7c0.3,0,0.5-0.2,0.6-0.5c0.2-0.9,0.3-1.8,0.5-2.6c0.2-1.4,1.2-2.4,2.6-2.5
		c1-0.1,2-0.1,2.9,0c1.3,0.1,2.3,0.9,2.6,2.2c0.1,0.4,0.1,0.7,0.2,1.1c0.1,0.6,0.2,1.3,0.3,1.9c0.1,0.3,0.3,0.5,0.6,0.4
		c0.3,0,0.5-0.3,0.5-0.6c0-0.1,0-0.1,0-0.2c-0.2-0.9-0.3-1.7-0.5-2.6c-0.3-1.7-1.6-3-3.3-3.2C13.2,5.1,12.6,5.2,12,5.2z"/>
	<path fill="#FFFFFF" d="M20.9,15c0-0.1,0-0.1,0-0.2c-0.4-2.4-0.8-4.7-1.3-7.1c-0.2-1.2-0.7-2.2-1.5-3.1c-0.1-0.1-0.1-0.2,0-0.3
		c0.7-0.8,1.5-0.8,2.2,0c0.6,0.7,0.9,1.5,1.1,2.3c0.6,2.5,0.6,5-0.1,7.6C21.2,14.5,21,14.7,20.9,15C20.9,15,20.9,15,20.9,15z"/>
	<path fill="#FFFFFF" d="M6.1,4.4C5.7,5,5.3,5.5,5,6.1C4.5,6.9,4.4,7.8,4.2,8.7c-0.4,2.1-0.7,4.1-1.1,6.2c0,0,0,0.1-0.1,0.1
		c-0.1-0.4-0.3-0.7-0.4-1.1c-0.4-1.4-0.5-2.8-0.4-4.2C2.3,8.4,2.5,7.2,2.9,6c0.2-0.6,0.4-1.1,0.8-1.6C3.9,4.2,4.1,4,4.4,3.9
		c0.4-0.2,0.8-0.2,1.2,0.1C5.7,4.1,5.9,4.3,6.1,4.4z"/>
	<path fill="#FFFFFF" d="M9.8,2.6c0-0.6,0.6-1.2,1.2-1.2c0.7,0,1.4,0,2.1,0c0.7,0,1.2,0.8,1.2,1.2C12.8,2.6,11.3,2.6,9.8,2.6z"/>
	<path d="M12,13.9c1.2,0,2.4,0,3.7,0c1.1,0,2.1,0.9,2.1,2.1c0,1.1,0,2.2,0,3.3c0,1.1-0.9,2-2,2c-2.5,0-5,0-7.4,0c-1.1,0-2-0.9-2-2
		c0-1.1,0-2.2,0-3.4c0-1.1,0.8-2,1.9-2C9.5,13.9,10.7,13.9,12,13.9z M12,20.2c1.2,0,2.4,0,3.6,0c0.7,0,1.1-0.4,1.1-1.1
		c0-1,0-2.1,0-3.1c0-0.7-0.4-1.1-1.1-1.1c-2.4,0-4.8,0-7.3,0c-0.6,0-1,0.4-1,1c0,1.1,0,2.1,0,3.2c0,0.7,0.5,1.1,1.1,1.1
		C9.6,20.2,10.8,20.2,12,20.2z"/>
	<path d="M12,5.2c0.6,0,1.2-0.1,1.8,0c1.7,0.2,3,1.5,3.3,3.2c0.1,0.9,0.3,1.7,0.5,2.6c0,0.1,0,0.1,0,0.2c0,0.3-0.2,0.5-0.5,0.6
		c-0.3,0-0.5-0.2-0.6-0.4c-0.1-0.6-0.2-1.3-0.3-1.9c-0.1-0.4-0.1-0.7-0.2-1.1c-0.3-1.2-1.2-2.1-2.6-2.2c-1-0.1-2-0.1-2.9,0
		C9.1,6.3,8.2,7.3,7.9,8.7c-0.1,0.9-0.3,1.8-0.5,2.6c-0.1,0.3-0.3,0.5-0.6,0.5c-0.3,0-0.5-0.3-0.4-0.7c0.2-1,0.3-2,0.5-3
		c0.4-1.7,1.9-3,3.7-3C11.1,5.2,11.6,5.2,12,5.2C12,5.2,12,5.2,12,5.2z"/>
	<path fill="#FFFFFF" d="M12,20.2c-1.2,0-2.4,0-3.6,0c-0.6,0-1.1-0.4-1.1-1.1c0-1.1,0-2.1,0-3.2c0-0.6,0.4-1,1-1c2.4,0,4.8,0,7.3,0
		c0.7,0,1.1,0.4,1.1,1.1c0,1,0,2.1,0,3.1c0,0.7-0.4,1.1-1.1,1.1C14.4,20.2,13.2,20.2,12,20.2z M15.2,16.7c0.2,0,0.4,0,0.6,0
		c0.3-0.1,0.5-0.4,0.4-0.7c-0.1-0.2-0.3-0.3-0.6-0.3c-1.7,0-3.3,0-5,0c-0.7,0-1.4,0-2.2,0c-0.3,0-0.6,0.2-0.6,0.5
		c0,0.3,0.2,0.5,0.6,0.5c0.1,0,0.2,0,0.4,0c1.7,0,3.4,0,5.1,0c0.2,0,0.3,0,0.3,0.2c0,0.2,0,0.5,0,0.7c0,0.1,0.1,0.3,0.2,0.4
		c0.1,0.1,0.3,0.1,0.5,0.1c0.2-0.1,0.3-0.3,0.3-0.5C15.2,17.3,15.2,17,15.2,16.7z"/>
	<path d="M15.2,16.7c0,0.3,0,0.7,0,1c0,0.2-0.1,0.4-0.3,0.5c-0.2,0.1-0.4,0.1-0.5-0.1c-0.1-0.1-0.2-0.3-0.2-0.4c0-0.2,0-0.5,0-0.7
		c0-0.2-0.1-0.2-0.3-0.2c-1.7,0-3.4,0-5.1,0c-0.1,0-0.3,0-0.4,0c-0.3,0-0.6-0.2-0.6-0.5c0-0.3,0.2-0.5,0.6-0.5c0.7,0,1.4,0,2.2,0
		c1.7,0,3.3,0,5,0c0.2,0,0.4,0.1,0.6,0.3c0.2,0.3,0,0.7-0.4,0.7C15.6,16.7,15.4,16.7,15.2,16.7z"/>
</g>
</svg>
