<?xml version="1.0" encoding="utf-8"?>
<!-- Generator: Adobe Illustrator 17.1.0, SVG Export Plug-In . SVG Version: 6.00 Build 0)  -->
<!DOCTYPE svg PUBLIC "-//W3C//DTD SVG 1.1//EN" "http://www.w3.org/Graphics/SVG/1.1/DTD/svg11.dtd">
<svg version="1.1" id="Layer_1" xmlns="http://www.w3.org/2000/svg" xmlns:xlink="http://www.w3.org/1999/xlink" x="0px" y="0px"
	 width="23.6px" height="23.7px" viewBox="71.6 71.9 23.6 23.7" enable-background="new 71.6 71.9 23.6 23.7" xml:space="preserve">
<g>
	<path fill="#FFFFFF" stroke="#000000" stroke-linecap="round" stroke-linejoin="round" stroke-miterlimit="10" d="M76.9,92.4
		l6.1-6.1l-2-2l-6.1,6.1c-0.6-0.6-1.7-0.6-2.4,0c-0.6,0.6-0.6,1.7,0,2.4c0.4,0.4,1,0.5,1.5,0.5c-0.1,0.5,0.1,1.1,0.5,1.5
		c0.6,0.6,1.7,0.6,2.4,0C77.5,94.1,77.5,93,76.9,92.4z"/>
	<path fill="#FFFFFF" stroke="#000000" stroke-linecap="round" stroke-linejoin="round" stroke-miterlimit="10" d="M77.1,85.7
		c-0.4,0.4-0.4,1.1,0,1.5c0.4,0.4,1,0.4,1.5,0c-0.4,0.4-0.4,1,0,1.5c0.4,0.4,1,0.4,1.5,0c-0.4,0.4-0.4,1,0,1.5c0.4,0.4,1,0.4,1.5,0
		c2-2,4.7-3.4,7.5-3.9c1.4-0.3,2.6-0.9,3.6-1.9c2.8-2.8,2.7-7.5-0.4-10.2c-2.5-2.2-6.4-2.3-9-0.1c-1.4,1.1-2.2,2.6-2.5,4.3
		C80.5,81.2,79.2,83.7,77.1,85.7z"/>
</g>
</svg>
