<?xml version="1.0" encoding="utf-8"?>
<!-- Generator: Adobe Illustrator 17.1.0, SVG Export Plug-In . SVG Version: 6.00 Build 0)  -->
<!DOCTYPE svg PUBLIC "-//W3C//DTD SVG 1.1//EN" "http://www.w3.org/Graphics/SVG/1.1/DTD/svg11.dtd">
<svg version="1.1" id="Layer_1" xmlns="http://www.w3.org/2000/svg" xmlns:xlink="http://www.w3.org/1999/xlink" x="0px" y="0px"
	 width="22.1px" height="23.7px" viewBox="73.4 71.9 22.1 23.7" enable-background="new 73.4 71.9 22.1 23.7" xml:space="preserve">
<g>
	<g>
		<path fill="none" stroke="#000000" stroke-linecap="round" stroke-linejoin="round" stroke-miterlimit="10" d="M87.4,73.8h-3.1
			c-0.2,0-0.4-0.2-0.4-0.4v-0.7c0-0.2,0.2-0.4,0.4-0.4h3.1c0.2,0,0.4,0.2,0.4,0.4v0.7C87.7,73.6,87.5,73.8,87.4,73.8z"/>
		<path fill="none" stroke="#000000" stroke-linecap="round" stroke-linejoin="round" stroke-miterlimit="10" d="M87.2,73.8
			c0,0,0.2,2.2,0.5,4.4c0.2,1.2,0.5,1.9,0.8,3c0.4,0.9,0.7,2.5,0.8,4v8.5c0,0.7-0.5,1.3-1.3,1.3h-2.2h-2.3c-0.7,0-1.3-0.5-1.3-1.3
			v-8.5c0.1-1.5,0.5-3.1,0.8-4c0.4-1.1,0.6-1.7,0.7-2.8c0.3-2.3,0.5-4.5,0.5-4.5"/>
		<path fill="none" stroke="#000000" stroke-linecap="round" stroke-linejoin="round" stroke-miterlimit="10" d="M88,88.2
			c-0.6-0.6-1.5-0.9-2.3-0.9s-1.6,0.3-2.3,0.9l0.6,3.8h1.5h1.5L88,88.2z"/>
		
			<line fill="none" stroke="#000000" stroke-linecap="round" stroke-linejoin="round" stroke-miterlimit="10" x1="84" y1="77.5" x2="87.5" y2="77.5"/>
	</g>
	<g>
		
			<rect x="89.3" y="78.8" fill="none" stroke="#000000" stroke-linecap="round" stroke-linejoin="round" stroke-miterlimit="10" width="5.7" height="16.3"/>
		<g>
			
				<rect x="90.1" y="76.9" fill="none" stroke="#000000" stroke-linecap="round" stroke-linejoin="round" stroke-miterlimit="10" width="4.1" height="1.9"/>
			<polyline fill="none" stroke="#000000" stroke-linecap="round" stroke-linejoin="round" stroke-miterlimit="10" points="93.2,77 
				92.6,74.2 92.1,74.2 92.1,74.2 91.6,74.2 91,76.9 			"/>
		</g>
	</g>
	<g>
		
			<rect x="75.8" y="75.4" fill="none" stroke="#000000" stroke-linecap="round" stroke-linejoin="round" stroke-miterlimit="10" width="4.5" height="3.1"/>
		<path fill="none" stroke="#000000" stroke-linecap="round" stroke-linejoin="round" stroke-miterlimit="10" d="M79.7,78.5v4.1
			c0,0-0.3,1.8,1.6,3.5c0.5,0.5,0.8,1.1,0.8,1.8v5.8c0,0.7-0.5,1.3-1.3,1.3H78h-2.7c-0.7,0-1.3-0.5-1.3-1.3v-5.8
			c0-0.7,0.3-1.4,0.8-1.8c1.9-1.6,1.6-3.5,1.6-3.5v-4.1"/>
	</g>
	
		<line fill="none" stroke="#000000" stroke-linecap="round" stroke-linejoin="round" stroke-miterlimit="10" x1="73.9" y1="88.5" x2="82.2" y2="88.5"/>
	
		<line fill="none" stroke="#000000" stroke-linecap="round" stroke-linejoin="round" stroke-miterlimit="10" x1="73.9" y1="92.6" x2="82.2" y2="92.6"/>
</g>
</svg>
