<?xml version="1.0" encoding="utf-8"?>
<!-- Generator: Adobe Illustrator 17.1.0, SVG Export Plug-In . SVG Version: 6.00 Build 0)  -->
<!DOCTYPE svg PUBLIC "-//W3C//DTD SVG 1.1//EN" "http://www.w3.org/Graphics/SVG/1.1/DTD/svg11.dtd">
<svg version="1.1" id="Layer_1" xmlns="http://www.w3.org/2000/svg" xmlns:xlink="http://www.w3.org/1999/xlink" x="0px" y="0px"
	 width="23.9px" height="21.9px" viewBox="71.8 73.5 23.9 21.9" enable-background="new 71.8 73.5 23.9 21.9" xml:space="preserve">
<g>
	<g>
		<path fill="none" stroke="#000000" stroke-linecap="round" stroke-linejoin="round" stroke-miterlimit="10" d="M83.7,84.6
			c0,0,2.3-0.3,4.4,2.4c0,0,4.6,5.4,2.1,7.3c-0.6,0.5-1.5,0.6-2.3,0.5s-1.5-0.6-2.3-0.9c-0.5-0.2-1.2-0.3-1.8-0.3s-1.2,0.1-1.8,0.3
			c-0.8,0.3-1.5,0.8-2.3,0.9s-1.6-0.1-2.3-0.5c-2.5-1.9,2.1-7.3,2.1-7.3C81.5,84.4,83.7,84.6,83.7,84.6L83.7,84.6z"/>
		
			<ellipse transform="matrix(-0.3938 -0.9192 0.9192 -0.3938 27.3882 185.2918)" fill="none" stroke="#000000" stroke-linecap="round" stroke-linejoin="round" stroke-miterlimit="10" cx="74.8" cy="83.6" rx="3.4" ry="2.3"/>
		
			<ellipse transform="matrix(-7.722624e-002 -0.997 0.997 -7.722624e-002 8.6137 163.5686)" fill="none" stroke="#000000" stroke-linecap="round" stroke-linejoin="round" stroke-miterlimit="10" cx="80" cy="77.8" rx="3.8" ry="2.5"/>
		
			<ellipse transform="matrix(-0.3938 0.9192 -0.9192 -0.3938 206.085 31.5045)" fill="none" stroke="#000000" stroke-linecap="round" stroke-linejoin="round" stroke-miterlimit="10" cx="92.7" cy="83.7" rx="3.4" ry="2.3"/>
		
			<ellipse transform="matrix(-7.722624e-002 0.997 -0.997 -7.722624e-002 171.8745 -3.5542)" fill="none" stroke="#000000" stroke-linecap="round" stroke-linejoin="round" stroke-miterlimit="10" cx="87.6" cy="77.8" rx="3.8" ry="2.5"/>
	</g>
</g>
</svg>
